<svg width="312" height="191" viewBox="0 0 312 191" fill="none" xmlns="http://www.w3.org/2000/svg">
<path d="M13 133.887L32.239 18H82.4868C91.3141 18 98.5382 19.1883 104.159 21.5649C109.818 23.9415 113.816 27.2989 116.155 31.6371C118.532 35.9753 119.23 41.0868 118.249 46.9717C117.494 51.1967 115.872 55.0634 113.382 58.5717C110.93 62.0423 107.818 64.9847 104.046 67.399C100.311 69.7756 96.1428 71.4166 91.5405 72.322L91.3141 73.4537C96.2937 73.6046 100.632 74.8494 104.329 77.1883C108.026 79.4894 110.742 82.6959 112.477 86.8078C114.212 90.8819 114.627 95.6351 113.722 101.067C112.666 107.405 110.082 113.045 105.97 117.986C101.858 122.928 96.52 126.814 89.9561 129.643C83.3922 132.472 75.9229 133.887 67.5483 133.887H13ZM48.7619 108.763H63.4741C68.68 108.763 72.773 107.763 75.7532 105.764C78.7711 103.765 80.5629 100.841 81.1288 96.9932C81.5815 94.2771 81.3551 91.9759 80.4498 90.0897C79.5444 88.2036 78.0166 86.7701 75.8663 85.7893C73.7161 84.8084 71.0189 84.318 67.7746 84.318H52.6098L48.7619 108.763ZM56.0049 64.8527H68.9063C71.6224 64.8527 74.1122 64.4189 76.3756 63.5512C78.639 62.6836 80.5063 61.4198 81.9776 59.76C83.4488 58.1002 84.373 56.1008 84.7502 53.7619C85.3161 50.1405 84.4484 47.3867 82.1473 45.5005C79.8839 43.6143 76.8283 42.6712 72.9805 42.6712H59.6263L56.0049 64.8527Z" fill="#0C45D5"/>
<path d="M122.945 43.4634C122.945 33.7873 120.455 24.96 108.629 18.1132H213.821L205.051 43.4634H170.194L155.255 134H124.247L139.185 43.4634H122.945Z" fill="#0C45D5"/>
<path d="M213.425 133.887H179.474L217.726 18H260.731L298.983 133.887H265.031L239.681 49.9141H238.776L213.425 133.887ZM207.088 88.1659H270.916V111.705H207.088V88.1659Z" fill="#0C45D5"/>
<path d="M141.352 148.091V167H136.219V148.091H141.352ZM145.605 167V148.091H153.767C155.17 148.091 156.398 148.346 157.451 148.857C158.504 149.368 159.322 150.104 159.907 151.064C160.492 152.024 160.784 153.175 160.784 154.517C160.784 155.871 160.483 157.013 159.879 157.942C159.282 158.872 158.442 159.574 157.359 160.048C156.282 160.522 155.023 160.759 153.582 160.759H148.707V156.77H152.548C153.152 156.77 153.666 156.696 154.09 156.548C154.521 156.394 154.85 156.151 155.078 155.819C155.312 155.487 155.429 155.053 155.429 154.517C155.429 153.975 155.312 153.535 155.078 153.197C154.85 152.852 154.521 152.6 154.09 152.44C153.666 152.273 153.152 152.19 152.548 152.19H150.739V167H145.605ZM156.685 158.321L161.412 167H155.835L151.219 158.321H156.685ZM164.792 167V148.091H172.954C174.358 148.091 175.586 148.346 176.638 148.857C177.691 149.368 178.509 150.104 179.094 151.064C179.679 152.024 179.971 153.175 179.971 154.517C179.971 155.871 179.67 157.013 179.066 157.942C178.469 158.872 177.629 159.574 176.546 160.048C175.469 160.522 174.21 160.759 172.77 160.759H167.895V156.77H171.736C172.339 156.77 172.853 156.696 173.277 156.548C173.708 156.394 174.038 156.151 174.265 155.819C174.499 155.487 174.616 155.053 174.616 154.517C174.616 153.975 174.499 153.535 174.265 153.197C174.038 152.852 173.708 152.6 173.277 152.44C172.853 152.273 172.339 152.19 171.736 152.19H169.926V167H164.792ZM175.872 158.321L180.599 167H175.022L170.406 158.321H175.872ZM189.113 148.091V167H183.98V148.091H189.113ZM205.646 154.332C205.566 154.006 205.44 153.72 205.267 153.474C205.095 153.221 204.879 153.009 204.621 152.837C204.369 152.658 204.073 152.526 203.735 152.44C203.402 152.347 203.036 152.301 202.636 152.301C201.774 152.301 201.039 152.507 200.429 152.92C199.826 153.332 199.364 153.926 199.044 154.702C198.73 155.477 198.573 156.413 198.573 157.509C198.573 158.616 198.724 159.564 199.026 160.352C199.327 161.14 199.777 161.743 200.374 162.162C200.971 162.58 201.713 162.79 202.599 162.79C203.381 162.79 204.03 162.676 204.547 162.448C205.07 162.22 205.461 161.897 205.72 161.479C205.978 161.06 206.107 160.568 206.107 160.001L206.994 160.094H202.673V156.438H211.056V159.06C211.056 160.783 210.69 162.257 209.958 163.482C209.231 164.701 208.228 165.637 206.948 166.289C205.673 166.935 204.212 167.259 202.562 167.259C200.722 167.259 199.106 166.868 197.715 166.086C196.324 165.304 195.237 164.19 194.455 162.744C193.68 161.297 193.292 159.577 193.292 157.582C193.292 156.019 193.529 154.634 194.003 153.428C194.483 152.221 195.148 151.202 195.997 150.371C196.847 149.534 197.829 148.903 198.943 148.479C200.057 148.048 201.251 147.832 202.525 147.832C203.645 147.832 204.686 147.992 205.646 148.312C206.612 148.626 207.465 149.076 208.203 149.661C208.948 150.239 209.548 150.925 210.004 151.719C210.459 152.513 210.736 153.384 210.835 154.332H205.646ZM219.598 167H214.058L220.3 148.091H227.317L233.558 167H228.018L223.882 153.298H223.734L219.598 167ZM218.564 159.54H228.979V163.381H218.564V159.54ZM253.964 155.182H248.757C248.72 154.751 248.621 154.36 248.461 154.009C248.307 153.658 248.092 153.357 247.815 153.104C247.544 152.846 247.215 152.649 246.827 152.513C246.439 152.372 245.999 152.301 245.507 152.301C244.645 152.301 243.916 152.51 243.318 152.929C242.728 153.348 242.278 153.948 241.97 154.729C241.669 155.511 241.518 156.45 241.518 157.545C241.518 158.703 241.672 159.672 241.98 160.454C242.294 161.229 242.746 161.814 243.337 162.208C243.928 162.596 244.639 162.79 245.47 162.79C245.944 162.79 246.368 162.731 246.744 162.614C247.119 162.491 247.446 162.316 247.723 162.088C248 161.86 248.224 161.586 248.397 161.266C248.575 160.94 248.695 160.574 248.757 160.168L253.964 160.205C253.902 161.005 253.678 161.82 253.29 162.651C252.902 163.476 252.351 164.239 251.637 164.941C250.929 165.637 250.052 166.197 249.006 166.621C247.96 167.046 246.744 167.259 245.359 167.259C243.623 167.259 242.066 166.886 240.687 166.141C239.314 165.397 238.228 164.301 237.428 162.854C236.634 161.408 236.237 159.638 236.237 157.545C236.237 155.44 236.643 153.668 237.456 152.227C238.268 150.781 239.364 149.688 240.742 148.95C242.121 148.205 243.66 147.832 245.359 147.832C246.553 147.832 247.652 147.996 248.655 148.322C249.658 148.648 250.539 149.125 251.296 149.753C252.053 150.375 252.662 151.141 253.124 152.052C253.585 152.963 253.866 154.006 253.964 155.182ZM244.362 166.852H246.171L246.024 167.702C246.756 167.813 247.326 168.071 247.732 168.477C248.138 168.884 248.344 169.388 248.35 169.991C248.363 170.989 247.873 171.773 246.882 172.346C245.898 172.918 244.54 173.205 242.811 173.205V171.247C243.722 171.247 244.417 171.149 244.897 170.952C245.377 170.761 245.63 170.478 245.654 170.102C245.679 169.758 245.544 169.471 245.248 169.244C244.959 169.022 244.516 168.865 243.919 168.773L244.362 166.852ZM262.441 167H256.901L263.143 148.091H270.16L276.401 167H270.861L266.725 153.298H266.577L262.441 167ZM261.407 159.54H271.822V163.381H261.407V159.54ZM264.14 146.244H261.628C261.628 144.915 261.933 143.927 262.543 143.281C263.152 142.628 263.894 142.299 264.768 142.293C265.248 142.293 265.654 142.37 265.986 142.523C266.325 142.671 266.62 142.847 266.873 143.05C267.125 143.253 267.353 143.431 267.556 143.585C267.765 143.733 267.981 143.807 268.202 143.807C268.559 143.801 268.812 143.671 268.959 143.419C269.113 143.167 269.193 142.816 269.2 142.366H271.674C271.655 143.671 271.342 144.659 270.732 145.33C270.129 146.001 269.396 146.343 268.535 146.355C268.055 146.361 267.645 146.287 267.307 146.134C266.974 145.98 266.685 145.804 266.439 145.607C266.199 145.404 265.974 145.226 265.765 145.072C265.556 144.918 265.334 144.841 265.1 144.841C264.805 144.841 264.571 144.961 264.398 145.201C264.226 145.435 264.14 145.783 264.14 146.244ZM297.472 157.545C297.472 159.651 297.063 161.426 296.244 162.873C295.425 164.313 294.32 165.406 292.929 166.151C291.538 166.889 289.987 167.259 288.276 167.259C286.552 167.259 284.995 166.886 283.604 166.141C282.219 165.39 281.117 164.295 280.299 162.854C279.486 161.408 279.08 159.638 279.08 157.545C279.08 155.44 279.486 153.668 280.299 152.227C281.117 150.781 282.219 149.688 283.604 148.95C284.995 148.205 286.552 147.832 288.276 147.832C289.987 147.832 291.538 148.205 292.929 148.95C294.32 149.688 295.425 150.781 296.244 152.227C297.063 153.668 297.472 155.44 297.472 157.545ZM292.191 157.545C292.191 156.413 292.04 155.459 291.738 154.683C291.443 153.902 291.003 153.311 290.418 152.911C289.839 152.504 289.125 152.301 288.276 152.301C287.426 152.301 286.709 152.504 286.125 152.911C285.546 153.311 285.106 153.902 284.804 154.683C284.509 155.459 284.361 156.413 284.361 157.545C284.361 158.678 284.509 159.635 284.804 160.417C285.106 161.192 285.546 161.783 286.125 162.19C286.709 162.59 287.426 162.79 288.276 162.79C289.125 162.79 289.839 162.59 290.418 162.19C291.003 161.783 291.443 161.192 291.738 160.417C292.04 159.635 292.191 158.678 292.191 157.545Z" fill="#0C45D5"/>
<rect x="13" y="152" width="111" height="12" fill="#2F9F5A"/>
</svg>
